<?xml version="1.0" standalone="no"?>
<!DOCTYPE svg PUBLIC "-//W3C//DTD SVG 20010904//EN"
 "http://www.w3.org/TR/2001/REC-SVG-20010904/DTD/svg10.dtd">
<svg version="1.0" xmlns="http://www.w3.org/2000/svg"
 width="700.000000pt" height="700.000000pt" viewBox="0 0 700.000000 700.000000"
 preserveAspectRatio="xMidYMid meet">
<metadata>
Created by potrace 1.14, written by Peter Selinger 2001-2017
</metadata>
<g transform="translate(0.000000,700.000000) scale(0.100000,-0.100000)"
fill="#000000" stroke="none">
<path d="M315 6982 c-94 -32 -180 -93 -235 -168 -96 -130 -104 -315 -22 -468
20 -38 406 -430 1516 -1540 l1489 -1489 0 -1214 c0 -667 -3 -1217 -7 -1221 -4
-4 -220 -7 -479 -8 -467 -1 -473 -1 -532 -24 -147 -56 -242 -160 -280 -307
-27 -103 -15 -205 36 -309 31 -62 121 -152 183 -183 108 -53 49 -51 1516 -51
1207 0 1372 2 1425 16 272 71 402 377 270 634 -50 96 -186 196 -295 216 -25 4
-250 9 -500 10 -250 1 -457 2 -460 3 -3 0 -5 549 -4 1220 l1 1218 1488 1489
c818 819 1498 1507 1511 1529 36 62 55 124 60 195 14 195 -99 370 -288 447
-41 17 -222 18 -3193 19 -2906 2 -3154 1 -3200 -14z m5185 -860 c0 -1 -450
-452 -1000 -1002 l-1000 -1000 -1000 1000 c-550 550 -1000 1001 -1000 1003 0
1 900 2 2000 2 1100 0 2000 -1 2000 -3z"/>
</g>
</svg>
